HIERARCHY
ROOT hip
{
  OFFSET 0 90.174 2.4664
  CHANNELS 6 Xposition Yposition Zposition Zrotation Xrotation Yrotation
  JOINT abdomen
  {
    OFFSET 0 -1.186 -1.5018
    CHANNELS 6 Xposition Yposition Zposition Zrotation Xrotation Yrotation
    JOINT abdomen2
    {
      OFFSET 0 9.964 0.2134
      CHANNELS 6 Xposition Yposition Zposition Zrotation Xrotation Yrotation
      JOINT chest
      {
        OFFSET 0 13.134 -3.2573
        CHANNELS 6 Xposition Yposition Zposition Zrotation Xrotation Yrotation
        JOINT neck
        {
          OFFSET 0 20.686 -1.6905
          CHANNELS 6 Xposition Yposition Zposition Zrotation Xrotation Yrotation
          JOINT head
          {
            OFFSET 0 7.238 -0.1237
            CHANNELS 6 Xposition Yposition Zposition Zrotation Xrotation Yrotation
            End Site
            {
              OFFSET 0 0 0
            }
          }
        }
        JOINT lCollar
        {
          OFFSET 1.7069 20.075 5.0056
          CHANNELS 6 Xposition Yposition Zposition Zrotation Xrotation Yrotation
          JOINT lShldr
          {
            OFFSET 13.6458 -0.047 -4.849
            CHANNELS 6 Xposition Yposition Zposition Zrotation Xrotation Yrotation
            JOINT lForeArm
            {
              OFFSET 28.3255 -0.9759 2.2888
              CHANNELS 6 Xposition Yposition Zposition Zrotation Xrotation Yrotation
              JOINT lHand
              {
                OFFSET 22.1583 -0.53 10.8316
                CHANNELS 6 Xposition Yposition Zposition Zrotation Xrotation Yrotation
                JOINT lThumb1
                {
                  OFFSET 0.786 0.112 2.5817
                  CHANNELS 6 Xposition Yposition Zposition Zrotation Xrotation Yrotation
                  JOINT lThumb2
                  {
                    OFFSET 0.3601 -0.878 4.2331
                    CHANNELS 6 Xposition Yposition Zposition Zrotation Xrotation Yrotation
                    JOINT lThumb2_End
                    {
                      OFFSET 1.8127 -1.216 2.2227
                      CHANNELS 6 Xposition Yposition Zposition Zrotation Xrotation Yrotation
                      End Site
                      {
                        OFFSET 0.0181 -0.0122 0.0222
                      }
                    }
                  }
                }
                JOINT lCarpal1
                {
                  OFFSET 0.9571 1.114 1.7695
                  CHANNELS 6 Xposition Yposition Zposition Zrotation Xrotation Yrotation
                  JOINT lIndex1
                  {
                    OFFSET 4.1246 0.487 4.1451
                    CHANNELS 6 Xposition Yposition Zposition Zrotation Xrotation Yrotation
                    JOINT lIndex2
                    {
                      OFFSET 3.4052 -1.454 2.7682
                      CHANNELS 6 Xposition Yposition Zposition Zrotation Xrotation Yrotation
                      JOINT lIndex2_End
                      {
                        OFFSET 1.4531 -1.795 1.2713
                        CHANNELS 6 Xposition Yposition Zposition Zrotation Xrotation Yrotation
                        End Site
                        {
                          OFFSET 0.0145 -0.0179 0.0127
                        }
                      }
                    }
                  }
                  JOINT lMid1
                  {
                    OFFSET 5.6954 0.21 2.1184
                    CHANNELS 6 Xposition Yposition Zposition Zrotation Xrotation Yrotation
                    JOINT lMid2
                    {
                      OFFSET 3.9766 -1.54 2.3863
                      CHANNELS 6 Xposition Yposition Zposition Zrotation Xrotation Yrotation
                      JOINT lMid2_End
                      {
                        OFFSET 1.4042 -1.926 1.125
                        CHANNELS 6 Xposition Yposition Zposition Zrotation Xrotation Yrotation
                        End Site
                        {
                          OFFSET 0.014 -0.0193 0.0113
                        }
                      }
                    }
                  }
                }
                JOINT lCarpal2
                {
                  OFFSET 2.0956 0.66 -0.3894
                  CHANNELS 6 Xposition Yposition Zposition Zrotation Xrotation Yrotation
                  JOINT lRing1
                  {
                    OFFSET 5.0395 -0.09 2.4971
                    CHANNELS 6 Xposition Yposition Zposition Zrotation Xrotation Yrotation
                    JOINT lRing2
                    {
                      OFFSET 3.7921 -1.552 1.4806
                      CHANNELS 6 Xposition Yposition Zposition Zrotation Xrotation Yrotation
                      JOINT lRing2_End
                      {
                        OFFSET 1.4655 -1.808 0.9609
                        CHANNELS 6 Xposition Yposition Zposition Zrotation Xrotation Yrotation
                        End Site
                        {
                          OFFSET 0.0147 -0.0181 0.0096
                        }
                      }
                    }
                  }
                  JOINT lPinky1
                  {
                    OFFSET 4.9141 -1.269 0.3591
                    CHANNELS 6 Xposition Yposition Zposition Zrotation Xrotation Yrotation
                    JOINT lPinky2
                    {
                      OFFSET 3.1477 -1.685 0.8462
                      CHANNELS 6 Xposition Yposition Zposition Zrotation Xrotation Yrotation
                      JOINT lPinky2_End
                      {
                        OFFSET 0.8055 -1.585 0.7955
                        CHANNELS 6 Xposition Yposition Zposition Zrotation Xrotation Yrotation
                        End Site
                        {
                          OFFSET 0.0081 -0.0158 0.008
                        }
                      }
                    }
                  }
                }
              }
            }
          }
        }
        JOINT rCollar
        {
          OFFSET -1.7069 20.075 5.0056
          CHANNELS 6 Xposition Yposition Zposition Zrotation Xrotation Yrotation
          JOINT rShldr
          {
            OFFSET -13.6458 -0.047 -4.849
            CHANNELS 6 Xposition Yposition Zposition Zrotation Xrotation Yrotation
            JOINT rForeArm
            {
              OFFSET -28.3255 -0.9759 2.2888
              CHANNELS 6 Xposition Yposition Zposition Zrotation Xrotation Yrotation
              JOINT rHand
              {
                OFFSET -22.1583 -0.53 10.8316
                CHANNELS 6 Xposition Yposition Zposition Zrotation Xrotation Yrotation
                JOINT rThumb1
                {
                  OFFSET -0.786 0.112 2.5817
                  CHANNELS 6 Xposition Yposition Zposition Zrotation Xrotation Yrotation
                  JOINT rThumb2
                  {
                    OFFSET -0.3601 -0.878 4.2331
                    CHANNELS 6 Xposition Yposition Zposition Zrotation Xrotation Yrotation
                    JOINT rThumb2_End
                    {
                      OFFSET -1.8127 -1.216 2.2227
                      CHANNELS 6 Xposition Yposition Zposition Zrotation Xrotation Yrotation
                      End Site
                      {
                        OFFSET -0.0181 -0.0122 0.0222
                      }
                    }
                  }
                }
                JOINT rCarpal1
                {
                  OFFSET -0.9571 1.114 1.7695
                  CHANNELS 6 Xposition Yposition Zposition Zrotation Xrotation Yrotation
                  JOINT rIndex1
                  {
                    OFFSET -4.1246 0.487 4.1451
                    CHANNELS 6 Xposition Yposition Zposition Zrotation Xrotation Yrotation
                    JOINT rIndex2
                    {
                      OFFSET -3.4052 -1.454 2.7682
                      CHANNELS 6 Xposition Yposition Zposition Zrotation Xrotation Yrotation
                      JOINT rIndex2_End
                      {
                        OFFSET -1.4531 -1.795 1.2713
                        CHANNELS 6 Xposition Yposition Zposition Zrotation Xrotation Yrotation
                        End Site
                        {
                          OFFSET -0.0145 -0.018 0.0127
                        }
                      }
                    }
                  }
                  JOINT rMid1
                  {
                    OFFSET -5.6954 0.21 2.1184
                    CHANNELS 6 Xposition Yposition Zposition Zrotation Xrotation Yrotation
                    JOINT rMid2
                    {
                      OFFSET -3.9766 -1.54 2.3863
                      CHANNELS 6 Xposition Yposition Zposition Zrotation Xrotation Yrotation
                      JOINT rMid2_End
                      {
                        OFFSET -1.4042 -1.926 1.125
                        CHANNELS 6 Xposition Yposition Zposition Zrotation Xrotation Yrotation
                        End Site
                        {
                          OFFSET -0.014 -0.0193 0.0113
                        }
                      }
                    }
                  }
                }
                JOINT rCarpal2
                {
                  OFFSET -2.0956 0.66 -0.3894
                  CHANNELS 6 Xposition Yposition Zposition Zrotation Xrotation Yrotation
                  JOINT rRing1
                  {
                    OFFSET -5.0395 -0.09 2.4971
                    CHANNELS 6 Xposition Yposition Zposition Zrotation Xrotation Yrotation
                    JOINT rRing2
                    {
                      OFFSET -3.7921 -1.552 1.4806
                      CHANNELS 6 Xposition Yposition Zposition Zrotation Xrotation Yrotation
                      JOINT rRing2_End
                      {
                        OFFSET -1.4655 -1.808 0.9609
                        CHANNELS 6 Xposition Yposition Zposition Zrotation Xrotation Yrotation
                        End Site
                        {
                          OFFSET -0.0147 -0.0181 0.0096
                        }
                      }
                    }
                  }
                  JOINT rPinky1
                  {
                    OFFSET -4.9141 -1.269 0.3592
                    CHANNELS 6 Xposition Yposition Zposition Zrotation Xrotation Yrotation
                    JOINT rPinky2
                    {
                      OFFSET -3.1477 -1.685 0.8462
                      CHANNELS 6 Xposition Yposition Zposition Zrotation Xrotation Yrotation
                      JOINT rPinky2_End
                      {
                        OFFSET -0.8055 -1.585 0.7955
                        CHANNELS 6 Xposition Yposition Zposition Zrotation Xrotation Yrotation
                        End Site
                        {
                          OFFSET -0.0081 -0.0158 0.008
                        }
                      }
                    }
                  }
                }
              }
            }
          }
        }
      }
    }
  }
  JOINT lThigh
  {
    OFFSET 8.367 -8.2066 0.5982
    CHANNELS 6 Xposition Yposition Zposition Zrotation Xrotation Yrotation
    JOINT lShin
    {
      OFFSET 2.1923 -43.463 -0.4932
      CHANNELS 6 Xposition Yposition Zposition Zrotation Xrotation Yrotation
      JOINT lFoot
      {
        OFFSET 0.7333 -45.8593 -2.6451
        CHANNELS 6 Xposition Yposition Zposition Zrotation Xrotation Yrotation
        End Site
        {
          OFFSET 2.6618 -4.2699 12.3931
        }
      }
    }
  }
  JOINT rThigh
  {
    OFFSET -8.367 -8.2066 0.5982
    CHANNELS 6 Xposition Yposition Zposition Zrotation Xrotation Yrotation
    JOINT rShin
    {
      OFFSET -2.1923 -43.463 -0.4931
      CHANNELS 6 Xposition Yposition Zposition Zrotation Xrotation Yrotation
      JOINT rFoot
      {
        OFFSET -0.7333 -45.8593 -2.6451
        CHANNELS 6 Xposition Yposition Zposition Zrotation Xrotation Yrotation
        End Site
        {
          OFFSET -2.6618 -4.2699 12.3931
        }
      }
    }
  }
}
MOTION
Frames:	4
Frame Time:	0.0333333
1.07513 30.4357 6.4926 0 15.2273 -0 0 -1.186 -1.5018 -0.33495 12.4189 -0.225725 0 9.964 0.2134 -0.641912 24.8389 -0.38926 1.66533e-016 13.134 -3.2573 -0.641912 24.8389 -0.38926 -1.11022e-016 20.686 -1.6905 -5.22479e-006 0.000131133 5.87711e-007 -1.11022e-016 7.238 -0.1237 3.71226e-008 -9.60215e-006 1.16106e-007 1.7069 20.075 5.0056 -10.3566 0.666071 -16.2897 13.6458 -0.047 -4.849 -37.8118 -1.92213 -66.206 28.3255 -0.9759 2.2888 -0.162395 -16.5381 6.86946 22.1583 -0.53 10.8316 22.7955 -1.23101 10.7469 0.786 0.112 2.5817 -3.18055e-015 0 -2.38542e-015 0.3601 -0.878 4.2331 5.7386e-006 -9.3743e-007 6.48927e-007 1.8127 -1.216 2.2227 -2.78299e-015 0 -0 0.9571 1.114 1.7695 1.59028e-015 0 -4.77083e-015 4.1246 0.487 4.1451 -4.77083e-015 3.18055e-015 2.38542e-015 3.4052 -1.454 2.7682 5.7386e-006 -9.3743e-007 6.48927e-007 1.4531 -1.795 1.2713 1.98785e-015 -3.18055e-015 2.38542e-015 5.6954 0.21 2.1184 -4.77083e-015 3.18055e-015 2.38542e-015 3.9766 -1.54 2.3863 5.7386e-006 -9.3743e-007 6.48927e-007 1.4042 -1.926 1.125 1.98785e-015 -3.18055e-015 2.38542e-015 2.0956 0.66 -0.3894 1.59028e-015 0 -4.77083e-015 5.0395 -0.09 2.4971 -4.77083e-015 3.18055e-015 2.38542e-015 3.7921 -1.552 1.4806 5.7386e-006 -9.3743e-007 6.48927e-007 1.4655 -1.808 0.9609 1.98785e-015 -3.18055e-015 2.38542e-015 4.9141 -1.269 0.3591 -4.77083e-015 3.18055e-015 2.38542e-015 3.1477 -1.685 0.8462 5.7386e-006 -9.3743e-007 6.48927e-007 0.8055 -1.585 0.7955 1.98785e-015 -3.18055e-015 2.38542e-015 -1.7069 20.075 5.0056 10.3788 0.560488 16.4747 -13.6458 -0.047 -4.849 28.3952 0.944849 69.9801 -28.3255 -0.9759 2.2888 -4.05195 -16.359 -12.5842 -22.1583 -0.53 10.8316 -23.409 -1.18937 -10.5686 -0.786 0.112 2.5817 8.93472e-007 -1.48259e-006 -2.90569e-006 -0.3601 -0.878 4.2331 2.33572e-015 -3.18055e-015 -2.13694e-015 -1.8127 -1.216 2.2227 -4.7272e-007 -2.90569e-006 1.48259e-006 -0.9571 1.114 1.7695 1.83876e-015 -6.36111e-015 -9.93923e-017 -4.1246 0.487 4.1451 8.93472e-007 -1.48259e-006 -2.90569e-006 -3.4052 -1.454 2.7682 1.2424e-015 0 -3.47873e-015 -1.4531 -1.795 1.2713 -4.7272e-007 -2.90569e-006 1.48259e-006 -5.6954 0.21 2.1184 8.93472e-007 -1.48259e-006 -2.90569e-006 -3.9766 -1.54 2.3863 1.2424e-015 0 -3.47873e-015 -1.4042 -1.926 1.125 -4.7272e-007 -2.90569e-006 1.48259e-006 -2.0956 0.66 -0.3894 1.83876e-015 -6.36111e-015 -9.93923e-017 -5.0395 -0.09 2.4971 8.93472e-007 -1.48259e-006 -2.90569e-006 -3.7921 -1.552 1.4806 1.2424e-015 0 -3.47873e-015 -1.4655 -1.808 0.9609 -4.7272e-007 -2.90569e-006 1.48259e-006 -4.9141 -1.269 0.3592 8.93472e-007 -1.48259e-006 -2.90569e-006 -3.1477 -1.685 0.8462 1.2424e-015 0 -3.47873e-015 -0.8055 -1.585 0.7955 -4.7272e-007 -2.90569e-006 1.48259e-006 8.367 -8.2066 0.5982 47.5611 -57.0129 47.1309 2.1923 -43.463 -0.4932 145.463 44.217 -146.622 0.7333 -45.8593 -2.6451 -15.9591 52.3926 18.2299 -8.367 -8.2066 0.5982 -47.537 -56.9527 -46.9642 -2.1923 -43.463 -0.4931 -145.294 44.2315 146.539 -0.7333 -45.8593 -2.6451 16.1454 52.6772 -18.2085 
1.07527 30.5009 6.4609 0 15.7132 -0 0 -1.186 -1.5018 -0.333371 12.3082 -0.227749 -1.11022e-016 9.964 0.2134 -0.638238 24.6175 -0.394336 5.55112e-017 13.134 -3.2573 -0.638238 24.6174 -0.394337 -5.55112e-016 20.686 -1.6905 2.04876e-005 -0.00113054 9.12719e-007 0 7.238 -0.1237 -2.20925e-007 8.52626e-006 -1.20069e-007 1.7069 20.075 5.0056 -10.2717 0.683992 -16.7079 13.6458 -0.047 -4.849 -38.1638 -2.33398 -65.7135 28.3255 -0.9759 2.2888 -0.15373 -16.6475 7.00312 22.1583 -0.53 10.8316 22.8659 -1.39842 10.5201 0.786 0.112 2.5817 3.78563e-007 8.82762e-007 -1.4074e-006 0.3601 -0.878 4.2331 -3.78563e-007 -8.82762e-007 1.4074e-006 1.8127 -1.216 2.2227 3.78563e-007 8.82762e-007 -1.4074e-006 0.9571 1.114 1.7695 -4.37326e-015 0 -7.95139e-016 4.1246 0.487 4.1451 3.78563e-007 8.82762e-007 -1.4074e-006 3.4052 -1.454 2.7682 -3.78563e-007 -8.82762e-007 1.4074e-006 1.4531 -1.795 1.2713 3.78563e-007 8.82762e-007 -1.4074e-006 5.6954 0.21 2.1184 3.78563e-007 8.82762e-007 -1.4074e-006 3.9766 -1.54 2.3863 -3.78563e-007 -8.82762e-007 1.4074e-006 1.4042 -1.926 1.125 3.78563e-007 8.82762e-007 -1.4074e-006 2.0956 0.66 -0.3894 -4.37326e-015 0 -7.95139e-016 5.0395 -0.09 2.4971 3.78563e-007 8.82762e-007 -1.4074e-006 3.7921 -1.552 1.4806 -3.78563e-007 -8.82762e-007 1.4074e-006 1.4655 -1.808 0.9609 3.78563e-007 8.82762e-007 -1.4074e-006 4.9141 -1.269 0.3591 3.78563e-007 8.82762e-007 -1.4074e-006 3.1477 -1.685 0.8462 -3.78563e-007 -8.82762e-007 1.4074e-006 0.8055 -1.585 0.7955 3.78563e-007 8.82762e-007 -1.4074e-006 -1.7069 20.075 5.0056 10.2951 0.575036 16.8989 -13.6458 -0.047 -4.849 28.5184 0.963476 69.5589 -28.3255 -0.9759 2.2888 -4.0613 -16.4644 -12.6887 -22.1583 -0.53 10.8316 -23.498 -1.36833 -10.3417 -0.786 0.112 2.5817 -9.93923e-016 -9.54166e-015 -1.54058e-015 -0.3601 -0.878 4.2331 -2.01427e-006 -1.01436e-006 -3.79544e-006 -1.8127 -1.216 2.2227 1.83433e-006 4.32347e-006 -5.87732e-006 -0.9571 1.114 1.7695 -1.19271e-015 -6.36111e-015 -1.2921e-015 -4.1246 0.487 4.1451 -8.59744e-015 -6.36111e-015 -2.78299e-015 -3.4052 -1.454 2.7682 -2.01427e-006 -1.01436e-006 -3.79544e-006 -1.4531 -1.795 1.2713 1.83433e-006 4.32347e-006 -5.87732e-006 -5.6954 0.21 2.1184 -8.59744e-015 -6.36111e-015 -2.78299e-015 -3.9766 -1.54 2.3863 -2.01427e-006 -1.01436e-006 -3.79544e-006 -1.4042 -1.926 1.125 1.83433e-006 4.32347e-006 -5.87732e-006 -2.0956 0.66 -0.3894 -1.19271e-015 -6.36111e-015 -1.2921e-015 -5.0395 -0.09 2.4971 -8.59744e-015 -6.36111e-015 -2.78299e-015 -3.7921 -1.552 1.4806 -2.01427e-006 -1.01436e-006 -3.79544e-006 -1.4655 -1.808 0.9609 1.83433e-006 4.32347e-006 -5.87732e-006 -4.9141 -1.269 0.3592 -8.59744e-015 -6.36111e-015 -2.78299e-015 -3.1477 -1.685 0.8462 -2.01427e-006 -1.01436e-006 -3.79544e-006 -0.8055 -1.585 0.7955 1.83433e-006 4.32347e-006 -5.87732e-006 8.367 -8.2066 0.5982 47.5623 -57.5705 47.2552 2.1923 -43.463 -0.4932 145.463 44.2171 -146.596 0.7333 -45.8593 -2.6451 -16.5417 52.4209 18.6013 -8.367 -8.2066 0.5982 -47.5391 -57.5077 -47.0857 -2.1923 -43.463 -0.4931 -145.293 44.2312 146.514 -0.7333 -45.8593 -2.6451 16.7372 52.7142 -18.5833 
1.07542 30.5658 6.42894 0 16.199 -0 0 -1.186 -1.5018 -0.331796 12.1975 -0.229762 -1.11022e-016 9.964 0.2134 -0.63459 24.396 -0.399376 -5.55112e-017 13.134 -3.2573 -0.63459 24.396 -0.399376 -2.22045e-016 20.686 -1.6905 -9.20601e-006 0.000159874 -3.89566e-007 -2.22045e-016 7.238 -0.1237 6.65629e-008 1.7256e-009 -8.33969e-008 1.7069 20.075 5.0056 -10.1867 0.701274 -17.1261 13.6458 -0.047 -4.849 -38.5125 -2.7491 -65.2234 28.3255 -0.9759 2.2888 -0.144768 -16.7568 7.13685 22.1583 -0.53 10.8316 22.9355 -1.56609 10.2935 0.786 0.112 2.5817 -4.37326e-015 -6.36111e-015 3.97569e-015 0.3601 -0.878 4.2331 1.98785e-015 0 2.38542e-015 1.8127 -1.216 2.2227 1.05507e-007 -1.40937e-006 -8.8222e-007 0.9571 1.114 1.7695 -3.57812e-015 -6.36111e-015 2.38542e-015 4.1246 0.487 4.1451 3.97569e-015 3.18055e-015 4.77083e-015 3.4052 -1.454 2.7682 2.38542e-015 6.36111e-015 5.56597e-015 1.4531 -1.795 1.2713 1.05507e-007 -1.40937e-006 -8.8222e-007 5.6954 0.21 2.1184 3.97569e-015 3.18055e-015 4.77083e-015 3.9766 -1.54 2.3863 2.38542e-015 6.36111e-015 5.56597e-015 1.4042 -1.926 1.125 1.05507e-007 -1.40937e-006 -8.8222e-007 2.0956 0.66 -0.3894 -3.57812e-015 -6.36111e-015 2.38542e-015 5.0395 -0.09 2.4971 3.97569e-015 3.18055e-015 4.77083e-015 3.7921 -1.552 1.4806 2.38542e-015 6.36111e-015 5.56597e-015 1.4655 -1.808 0.9609 1.05507e-007 -1.40937e-006 -8.8222e-007 4.9141 -1.269 0.3591 3.97569e-015 3.18055e-015 4.77083e-015 3.1477 -1.685 0.8462 2.38542e-015 6.36111e-015 5.56597e-015 0.8055 -1.585 0.7955 1.05507e-007 -1.40937e-006 -8.8222e-007 -1.7069 20.075 5.0056 10.2113 0.58894 17.323 -13.6458 -0.047 -4.849 28.6417 0.981153 69.1379 -28.3255 -0.9759 2.2888 -4.07095 -16.5698 -12.7934 -22.1583 -0.53 10.8316 -23.5862 -1.54764 -10.1151 -0.786 0.112 2.5817 -3.74335e-006 5.58437e-007 2.10849e-006 -0.3601 -0.878 4.2331 -2.93207e-015 3.18055e-015 -1.09332e-015 -1.8127 -1.216 2.2227 -4.27387e-015 3.18055e-015 -1.33186e-014 -0.9571 1.114 1.7695 3.57812e-015 0 -2.23633e-015 -4.1246 0.487 4.1451 -3.74335e-006 5.58437e-007 2.10849e-006 -3.4052 -1.454 2.7682 -9.24349e-015 -6.36111e-015 -1.2424e-015 -1.4531 -1.795 1.2713 -2.88238e-015 3.18055e-015 -4.42296e-015 -5.6954 0.21 2.1184 -3.74335e-006 5.58437e-007 2.10849e-006 -3.9766 -1.54 2.3863 -9.24349e-015 -6.36111e-015 -1.2424e-015 -1.4042 -1.926 1.125 -2.88238e-015 3.18055e-015 -4.42296e-015 -2.0956 0.66 -0.3894 3.57812e-015 0 -2.23633e-015 -5.0395 -0.09 2.4971 -3.74335e-006 5.58437e-007 2.10849e-006 -3.7921 -1.552 1.4806 -9.24349e-015 -6.36111e-015 -1.2424e-015 -1.4655 -1.808 0.9609 -2.88238e-015 3.18055e-015 -4.42296e-015 -4.9141 -1.269 0.3592 -3.74335e-006 5.58437e-007 2.10849e-006 -3.1477 -1.685 0.8462 -9.24349e-015 -6.36111e-015 -1.2424e-015 -0.8055 -1.585 0.7955 -2.88238e-015 3.18055e-015 -4.42296e-015 8.367 -8.2066 0.5982 47.5734 -58.126 47.3872 2.1923 -43.463 -0.4932 145.46 44.2164 -146.572 0.7333 -45.8593 -2.6451 -17.1251 52.4472 18.9733 -8.367 -8.2066 0.5982 -47.5444 -58.0625 -47.2092 -2.1923 -43.463 -0.4931 -145.291 44.2309 146.489 -0.7333 -45.8593 -2.6451 17.3302 52.7491 -18.9589 
1.07556 30.6304 6.39674 0 16.6847 -0 0 -1.186 -1.5018 -0.330223 12.0867 -0.231765 -1.11022e-016 9.964 0.2134 -0.630968 24.1746 -0.40438 5.55112e-017 13.134 -3.2573 -0.630969 24.1746 -0.40438 -2.22045e-016 20.686 -1.6905 -2.28529e-008 -1.92104e-005 1.3833e-006 -1.11022e-016 7.238 -0.1237 1.02416e-031 -4.77083e-015 1.22998e-015 1.7069 20.075 5.0056 -10.1016 0.717942 -17.5443 13.6458 -0.047 -4.849 -38.8578 -3.16716 -64.7353 28.3255 -0.9759 2.2888 -0.135579 -16.8662 7.27067 22.1583 -0.53 10.8316 23.0045 -1.73403 10.0671 0.786 0.112 2.5817 1.57793e-006 3.48009e-007 -3.28593e-007 0.3601 -0.878 4.2331 2.11875e-006 1.87766e-006 1.07958e-006 1.8127 -1.216 2.2227 5.6453e-006 3.99039e-007 1.47862e-006 0.9571 1.114 1.7695 2.38542e-015 3.18055e-015 -7.95139e-016 4.1246 0.487 4.1451 1.57793e-006 3.48009e-007 -3.28593e-007 3.4052 -1.454 2.7682 2.11875e-006 1.87766e-006 1.07958e-006 1.4531 -1.795 1.2713 5.6453e-006 3.99039e-007 1.47862e-006 5.6954 0.21 2.1184 1.57793e-006 3.48009e-007 -3.28593e-007 3.9766 -1.54 2.3863 2.11875e-006 1.87766e-006 1.07958e-006 1.4042 -1.926 1.125 5.6453e-006 3.99039e-007 1.47862e-006 2.0956 0.66 -0.3894 2.38542e-015 3.18055e-015 -7.95139e-016 5.0395 -0.09 2.4971 1.57793e-006 3.48009e-007 -3.28593e-007 3.7921 -1.552 1.4806 2.11875e-006 1.87766e-006 1.07958e-006 1.4655 -1.808 0.9609 5.6453e-006 3.99039e-007 1.47862e-006 4.9141 -1.269 0.3591 1.57793e-006 3.48009e-007 -3.28593e-007 3.1477 -1.685 0.8462 2.11875e-006 1.87766e-006 1.07958e-006 0.8055 -1.585 0.7955 5.6453e-006 3.99039e-007 1.47862e-006 -1.7069 20.075 5.0056 10.1274 0.602246 17.7472 -13.6458 -0.047 -4.849 28.7651 0.997925 68.7169 -28.3255 -0.9759 2.2888 -4.08076 -16.6751 -12.8981 -22.1583 -0.53 10.8316 -23.6738 -1.72729 -9.88881 -0.786 0.112 2.5817 4.42444e-007 -7.46669e-007 -1.45161e-006 -0.3601 -0.878 4.2331 4.1462e-007 -4.39655e-006 -1.40987e-006 -1.8127 -1.216 2.2227 4.34183e-006 3.17965e-006 -3.45602e-006 -0.9571 1.114 1.7695 9.49197e-015 -9.54166e-015 2.28602e-015 -4.1246 0.487 4.1451 4.42444e-007 -7.46669e-007 -1.45161e-006 -3.4052 -1.454 2.7682 4.1462e-007 -4.39655e-006 -1.40987e-006 -1.4531 -1.795 1.2713 4.34183e-006 3.17965e-006 -3.45602e-006 -5.6954 0.21 2.1184 4.42444e-007 -7.46669e-007 -1.45161e-006 -3.9766 -1.54 2.3863 4.1462e-007 -4.39655e-006 -1.40987e-006 -1.4042 -1.926 1.125 4.34183e-006 3.17965e-006 -3.45602e-006 -2.0956 0.66 -0.3894 9.49197e-015 -9.54166e-015 2.28602e-015 -5.0395 -0.09 2.4971 4.42444e-007 -7.46669e-007 -1.45161e-006 -3.7921 -1.552 1.4806 4.1462e-007 -4.39655e-006 -1.40987e-006 -1.4655 -1.808 0.9609 4.34183e-006 3.17965e-006 -3.45602e-006 -4.9141 -1.269 0.3592 4.42444e-007 -7.46669e-007 -1.45161e-006 -3.1477 -1.685 0.8462 4.1462e-007 -4.39655e-006 -1.40987e-006 -0.8055 -1.585 0.7955 4.34183e-006 3.17965e-006 -3.45602e-006 8.367 -8.2066 0.5982 47.5844 -58.6825 47.5184 2.1923 -43.463 -0.4932 145.457 44.2162 -146.548 0.7333 -45.8593 -2.6451 -17.7094 52.4716 19.346 -8.367 -8.2066 0.5982 -47.5549 -58.6167 -47.3364 -2.1923 -43.463 -0.4931 -145.288 44.2305 146.464 -0.7333 -45.8593 -2.6451 17.9242 52.782 -19.3353 
